<?xml version="1.0" encoding="utf-8"?><svg xmlns="http://www.w3.org/2000/svg" xmlns:xlink="http://www.w3.org/1999/xlink"><symbol viewBox="0 0 47.354 47.354" id="big-gear" xmlns="http://www.w3.org/2000/svg"><path d="M44.225 18.872H38.93a15.956 15.956 0 0 0-1.069-2.584l3.743-3.742a3.134 3.134 0 0 0 0-4.426l-2.369-2.369c-1.182-1.182-3.245-1.183-4.427 0l-3.743 3.743a15.893 15.893 0 0 0-2.583-1.069V3.13A3.133 3.133 0 0 0 25.352 0h-3.351a3.133 3.133 0 0 0-3.13 3.13v5.294c-.894.281-1.758.639-2.584 1.069L12.545 5.75c-1.183-1.183-3.245-1.183-4.426 0L5.751 8.119a3.109 3.109 0 0 0-.918 2.214c0 .836.326 1.622.917 2.213l3.742 3.743c-.43.826-.788 1.69-1.068 2.583H3.13A3.133 3.133 0 0 0 0 22.002v3.351a3.133 3.133 0 0 0 3.13 3.13h5.294c.281.893.638 1.757 1.068 2.583L5.75 34.809c-.591.591-.917 1.377-.917 2.213s.326 1.622.917 2.213l2.369 2.369c1.183 1.183 3.244 1.183 4.427 0l3.742-3.743a15.81 15.81 0 0 0 2.584 1.068v5.295a3.133 3.133 0 0 0 3.13 3.13h3.351a3.133 3.133 0 0 0 3.13-3.13V38.93c.893-.28 1.757-.638 2.583-1.068l3.742 3.743c1.183 1.183 3.246 1.182 4.427 0l2.369-2.369a3.134 3.134 0 0 0 0-4.426l-3.743-3.743c.431-.826.788-1.69 1.069-2.583h5.294a3.133 3.133 0 0 0 3.13-3.13v-3.351a3.133 3.133 0 0 0-3.129-3.131zm1.129 6.481c0 .623-.507 1.13-1.13 1.13h-6.047a1 1 0 0 0-.967.747 13.952 13.952 0 0 1-1.451 3.507.999.999 0 0 0 .156 1.212l4.274 4.274a1.13 1.13 0 0 1 0 1.598l-2.37 2.369c-.425.427-1.17.427-1.598 0l-4.274-4.275a1 1 0 0 0-1.212-.156 13.887 13.887 0 0 1-3.506 1.451 1 1 0 0 0-.747.967v6.047c0 .623-.507 1.13-1.13 1.13h-3.351c-.623 0-1.13-.507-1.13-1.13v-6.047a.998.998 0 0 0-.747-.967 13.872 13.872 0 0 1-3.506-1.451.999.999 0 0 0-1.213.156l-4.274 4.275a1.157 1.157 0 0 1-1.598 0l-2.369-2.37a1.123 1.123 0 0 1-.331-.798c0-.302.118-.586.331-.799l4.274-4.274a.999.999 0 0 0 .156-1.212 13.91 13.91 0 0 1-1.451-3.507 1 1 0 0 0-.967-.747H3.13c-.623 0-1.13-.507-1.13-1.13v-3.351c0-.623.507-1.13 1.13-1.13h6.047a1 1 0 0 0 .967-.747 13.915 13.915 0 0 1 1.451-3.507.999.999 0 0 0-.156-1.212l-4.274-4.274a1.125 1.125 0 0 1-.331-.799c0-.302.118-.585.331-.799l2.37-2.369a1.157 1.157 0 0 1 1.598 0l4.274 4.275a.997.997 0 0 0 1.212.156 13.922 13.922 0 0 1 3.507-1.451 1 1 0 0 0 .747-.967V3.13c0-.623.507-1.13 1.13-1.13h3.351c.623 0 1.13.507 1.13 1.13v6.047a1 1 0 0 0 .747.967c1.235.324 2.415.811 3.507 1.451a.997.997 0 0 0 1.212-.156l4.275-4.275c.426-.427 1.171-.426 1.598 0l2.369 2.369c.44.44.44 1.157 0 1.598l-4.275 4.274a.999.999 0 0 0-.156 1.212 13.922 13.922 0 0 1 1.451 3.507 1 1 0 0 0 .967.747h6.047c.623 0 1.13.507 1.13 1.13v3.352z"/><path d="M23.677 13.952a9.742 9.742 0 0 0-4.65 1.182.999.999 0 1 0 .958 1.755 7.729 7.729 0 0 1 3.693-.938c4.26 0 7.725 3.465 7.725 7.725s-3.465 7.725-7.725 7.725-7.725-3.465-7.725-7.725c0-1.183.26-2.318.773-3.372a1 1 0 0 0-1.799-.875 9.636 9.636 0 0 0-.975 4.247c0 5.362 4.363 9.725 9.725 9.725s9.725-4.363 9.725-9.725-4.362-9.724-9.725-9.724z"/></symbol><symbol viewBox="0 0 474.64 474.64" id="circular-clock" xmlns="http://www.w3.org/2000/svg"><path d="M405.131 69.508C358.792 23.169 298.056 0 237.32 0S115.847 23.169 69.508 69.508c-92.678 92.678-92.678 242.977 0 335.591 46.371 46.339 107.075 69.54 167.812 69.54s121.473-23.169 167.811-69.54c92.678-92.709 92.678-242.945 0-335.591zm-22.47 313.09c-38.838 38.838-90.421 60.26-145.341 60.26-54.888 0-106.503-21.421-145.341-60.26-38.806-38.838-60.196-90.421-60.196-145.309 0-54.92 21.39-106.503 60.196-145.341 38.87-38.806 90.485-60.196 145.341-60.196s106.503 21.39 145.341 60.196 60.196 90.453 60.196 145.341-21.39 106.534-60.196 145.309z"/><path d="M331.618 220.348h-79.456V108.887c0-8.772-7.119-15.891-15.891-15.891-8.708 0-15.891 7.119-15.891 15.891v127.352c0 8.74 7.151 15.891 15.891 15.891h95.347c8.772 0 15.891-7.151 15.891-15.891.001-8.772-7.119-15.891-15.891-15.891z"/></symbol><symbol viewBox="0 0 209.28 209.28" id="clock" xmlns="http://www.w3.org/2000/svg"><path d="M104.641 0C46.943 0 .002 46.94.002 104.637c0 57.701 46.941 104.643 104.639 104.643 57.697 0 104.637-46.943 104.637-104.643C209.278 46.94 162.338 0 104.641 0zm0 194.28c-49.427 0-89.639-40.214-89.639-89.643C15.002 55.211 55.214 15 104.641 15c49.426 0 89.637 40.211 89.637 89.637 0 49.429-40.211 89.643-89.637 89.643z"/><path d="M158.445 102.886h-49.174V49.134a7.5 7.5 0 0 0-15 0v61.252a7.5 7.5 0 0 0 7.5 7.5h56.674a7.5 7.5 0 0 0 0-15z"/></symbol><symbol viewBox="0 0 511 511" id="cogwheel" xmlns="http://www.w3.org/2000/svg"><path d="M487.5 208h-21.792c-5.402-24.064-14.791-46.742-27.971-67.562l15.399-15.4c9.163-9.163 9.163-24.071 0-33.234l-33.941-33.941c-4.438-4.439-10.34-6.883-16.617-6.883s-12.179 2.445-16.617 6.883l-15.399 15.399c-20.82-13.18-43.498-22.569-67.562-27.971V23.5C303 10.542 292.458 0 279.5 0h-48C218.542 0 208 10.542 208 23.5v21.792c-24.064 5.402-46.742 14.791-67.562 27.971l-15.399-15.399c-4.438-4.439-10.34-6.884-16.617-6.884s-12.179 2.445-16.617 6.883L57.864 91.805c-9.163 9.163-9.163 24.071 0 33.234l15.4 15.4c-13.18 20.82-22.569 43.498-27.971 67.561H23.5C10.542 208 0 218.542 0 231.5v48C0 292.458 10.542 303 23.5 303h21.793c5.402 24.064 14.791 46.741 27.971 67.561l-15.4 15.4c-4.438 4.438-6.883 10.34-6.883 16.617s2.445 12.178 6.883 16.617l33.941 33.941c4.438 4.438 10.34 6.883 16.617 6.883s12.179-2.445 16.617-6.883l15.4-15.4c20.82 13.18 43.497 22.568 67.562 27.971V487.5c0 12.958 10.542 23.5 23.5 23.5h48c12.958 0 23.5-10.542 23.5-23.5v-21.792c24.064-5.402 46.741-14.791 67.562-27.971l15.399 15.4c4.438 4.438 10.34 6.883 16.617 6.883s12.179-2.445 16.617-6.883l33.941-33.941c4.438-4.438 6.883-10.34 6.883-16.617s-2.445-12.179-6.883-16.617l-15.399-15.399c13.18-20.82 22.568-43.497 27.971-67.562H487.5c12.958 0 23.5-10.542 23.5-23.5v-48C511 218.542 500.458 208 487.5 208zm8.5 71.5c0 4.687-3.813 8.5-8.5 8.5h-27.883a7.5 7.5 0 0 0-7.361 6.065c-5.14 26.378-15.351 51.041-30.348 73.303a7.499 7.499 0 0 0 .917 9.493l19.705 19.705a8.448 8.448 0 0 1 2.49 6.011c0 2.27-.884 4.405-2.49 6.01l-33.941 33.941c-1.605 1.605-3.74 2.49-6.011 2.49s-4.405-.884-6.01-2.49l-19.706-19.706a7.498 7.498 0 0 0-9.493-.917c-22.264 14.998-46.927 25.208-73.304 30.348a7.498 7.498 0 0 0-6.065 7.361V487.5c0 4.687-3.813 8.5-8.5 8.5h-48c-4.687 0-8.5-3.813-8.5-8.5v-27.883a7.498 7.498 0 0 0-6.065-7.361c-26.377-5.14-51.041-15.351-73.303-30.348a7.485 7.485 0 0 0-4.188-1.28 7.492 7.492 0 0 0-5.306 2.197l-19.706 19.706c-1.605 1.605-3.739 2.49-6.01 2.49s-4.405-.884-6.011-2.49L68.47 408.589a8.446 8.446 0 0 1-2.49-6.01c0-2.271.884-4.405 2.49-6.011l19.706-19.706a7.499 7.499 0 0 0 .917-9.493c-14.998-22.263-25.208-46.926-30.348-73.303a7.5 7.5 0 0 0-7.361-6.065H23.5c-4.687 0-8.5-3.813-8.5-8.5v-48c0-4.687 3.813-8.5 8.5-8.5h27.883a7.5 7.5 0 0 0 7.361-6.065c5.14-26.377 15.351-51.04 30.348-73.303a7.499 7.499 0 0 0-.917-9.493L68.47 114.432c-3.314-3.314-3.314-8.707 0-12.021l33.941-33.941c1.605-1.605 3.74-2.49 6.011-2.49s4.405.884 6.01 2.49l19.705 19.705a7.501 7.501 0 0 0 9.494.917c22.263-14.997 46.926-25.208 73.304-30.348A7.5 7.5 0 0 0 223 51.382V23.5c0-4.687 3.813-8.5 8.5-8.5h48c4.687 0 8.5 3.813 8.5 8.5v27.883a7.501 7.501 0 0 0 6.065 7.362c26.377 5.14 51.04 15.35 73.304 30.348a7.5 7.5 0 0 0 9.494-.917l19.706-19.705c1.605-1.605 3.739-2.49 6.01-2.49s4.405.884 6.011 2.49l33.941 33.941c3.314 3.314 3.314 8.707 0 12.021l-19.705 19.705a7.499 7.499 0 0 0-.917 9.493c14.998 22.264 25.208 46.927 30.348 73.304a7.498 7.498 0 0 0 7.361 6.065H487.5c4.687 0 8.5 3.813 8.5 8.5v48z"/><path d="M119 255.5c0-75.266 61.234-136.5 136.5-136.5 18.423 0 36.292 3.605 53.108 10.715a7.5 7.5 0 1 0 5.841-13.816C295.774 108.004 275.941 104 255.5 104 171.962 104 104 171.963 104 255.5c0 34.6 11.969 68.436 33.702 95.275a7.483 7.483 0 0 0 5.833 2.781 7.464 7.464 0 0 0 4.715-1.672 7.5 7.5 0 0 0 1.109-10.548C129.782 317.159 119 286.675 119 255.5zm266.298-62.886a7.5 7.5 0 0 0-3.992 9.827C388.402 219.245 392 237.097 392 255.5c0 75.266-61.233 136.5-136.5 136.5-31.162 0-61.636-10.774-85.808-30.337a7.5 7.5 0 0 0-9.436 11.66C187.089 395.04 220.914 407 255.5 407c83.538 0 151.5-67.963 151.5-151.5 0-20.419-3.996-40.234-11.875-58.894a7.501 7.501 0 0 0-9.827-3.992zm-44.006-43.29a137.692 137.692 0 0 1 20.394 20.396 7.485 7.485 0 0 0 5.835 2.783 7.5 7.5 0 0 0 5.826-12.217 152.624 152.624 0 0 0-22.621-22.623 7.5 7.5 0 0 0-9.434 11.661z"/><path d="M255.5 136C189.607 136 136 189.608 136 255.5S189.607 375 255.5 375 375 321.393 375 255.5 321.393 136 255.5 136zm0 224C197.878 360 151 313.122 151 255.5S197.878 151 255.5 151 360 197.879 360 255.5 313.122 360 255.5 360z"/></symbol><symbol viewBox="0 0 44 44" id="contact" xmlns="http://www.w3.org/2000/svg"><path d="M43 6H1a1 1 0 0 0-1 1v30a1 1 0 0 0 1 1h42a1 1 0 0 0 1-1V7a1 1 0 0 0-1-1zm-1 27.581L29.612 21.194l-1.414 1.414L41.59 36H2.41l13.392-13.392-1.414-1.414L2 33.581V8h40v25.581z"/><path d="M39.979 8L22 25.979 4.021 8H2v.807L21.293 28.1a.999.999 0 0 0 1.414 0L42 8.807V8h-2.021z"/></symbol><symbol viewBox="0 0 70 70" id="eth" xmlns="http://www.w3.org/2000/svg"><path d="M20.996 35.629l13.577-5.934v13.891l-13.577-7.957zm.09 2.877l13.487 7.867v11.194L21.086 38.506zm.36-4.001l13.127-22.072v16.318l-13.127 5.754zm27.333.046l-13.352-5.8V12.433l13.352 22.118zm.225 1.078l-13.577 7.957V29.695l13.577 5.934zM35.427 46.373l13.486-7.867-13.486 19.061V46.373z"/></symbol><symbol viewBox="0 0 512 512" id="gift" xmlns="http://www.w3.org/2000/svg"><path d="M480 143.686H378.752c7.264-4.96 13.504-9.888 17.856-14.304 25.792-25.952 25.792-68.192 0-94.144-25.056-25.216-68.768-25.248-93.856 0-13.856 13.92-50.688 70.592-45.6 108.448h-2.304c5.056-37.856-31.744-94.528-45.6-108.448-25.088-25.248-68.8-25.216-93.856 0C89.6 61.19 89.6 103.43 115.36 129.382c4.384 4.416 10.624 9.344 17.888 14.304H32c-17.632 0-32 14.368-32 32v80c0 8.832 7.168 16 16 16h16v192c0 17.632 14.368 32 32 32h384c17.632 0 32-14.368 32-32v-192h16c8.832 0 16-7.168 16-16v-80c0-17.632-14.368-32-32-32zM138.08 57.798c6.496-6.528 15.104-10.112 24.256-10.112 9.12 0 17.728 3.584 24.224 10.112 21.568 21.696 43.008 77.12 35.552 84.832 0 0-1.344 1.056-5.92 1.056-22.112 0-64.32-22.976-78.112-36.864-13.408-13.504-13.408-35.52 0-49.024zM240 463.686H64v-192h176v192zm0-224H32v-64h208v64zm85.44-181.888c12.992-13.024 35.52-12.992 48.48 0 13.408 13.504 13.408 35.52 0 49.024-13.792 13.888-56 36.864-78.112 36.864-4.576 0-5.92-1.024-5.952-1.056-7.424-7.712 14.016-63.136 35.584-84.832zM448 463.686H272v-192h176v192zm32-224H272v-64h208v64z"/></symbol><symbol viewBox="0 0 470.472 470.472" id="globe" xmlns="http://www.w3.org/2000/svg"><path d="M260.872 23.236h-7.2c-2.4 0-4.8 0-7.2.8-41.6 2.4-80.8 16.8-113.6 43.2-29.6 7.2-55.2 27.2-70.4 55.2-13.6 24.8-16.8 53.6-8.8 80.8-1.6 8.8-2.4 19.2-2.4 29.6 0 22.4 4 44.8 11.2 66.4l-60.8 112.8c-1.6 3.2-2.4 7.2-.8 11.2 1.6 4 4 8 8 9.6l22.4 12c2.4 1.6 5.6 2.4 8 2.4 5.6 0 11.2-3.2 13.6-8l42.4-78.4c37.6 48 93.6 77.6 154.4 80.8h11.2c116 0 209.6-94.4 209.6-209.6s-94.4-208.8-209.6-208.8zm-13.6 14.4v68.8c-9.6-12-21.6-22.4-35.2-29.6-4-1.6-7.2-4-11.2-5.6 13.6-19.2 29.6-31.2 46.4-33.6zm-42.4 8c-6.4 5.6-12 12.8-18.4 21.6-8-2.4-16.8-3.2-24.8-3.2 13.6-8 28-14.4 43.2-18.4zm-164 387.2c0 .8-1.6.8-3.2 0l-22.4-12c-.8-.8-1.6-.8-1.6-1.6v-.8l81.6-152.8c0-.8.8-.8 1.6-.8s.8 0 1.6.8l9.6 4.8 12.8 7.2c1.6.8 1.6 2.4 1.6 2.4l-81.6 152.8zm24.8-193.6h6.4c4.8 5.6 9.6 11.2 15.2 16-2.4 1.6-3.2 3.2-4 4l-4 8c-7.2-8.8-12-18.4-13.6-28zm6.4 40.8l-.8 1.6c-.8-.8-.8-1.6-.8-3.2.8.8.8 1.6 1.6 1.6zm30.4 68l18.4-33.6c11.2 5.6 23.2 9.6 36 13.6 10.4 40.8 28 73.6 48.8 93.6-41.6-13.6-77.6-38.4-103.2-73.6zm24.8-47.2l8-14.4c0-1.6.8-3.2.8-5.6 4 .8 8 1.6 12 1.6 1.6 9.6 2.4 20 4.8 28.8-8.8-3.2-17.6-6.4-25.6-10.4zm120 128c-32-5.6-60-42.4-76-97.6 24 5.6 48.8 9.6 76 10.4v87.2zm0-101.6c-28-.8-55.2-4.8-79.2-11.2-2.4-9.6-4.8-20.8-6.4-32 33.6-.8 64.8-16.8 85.6-43.2v86.4zm-1.6-108.8c-16.8 31.2-49.6 51.2-85.6 51.2-16 0-31.2-4-45.6-11.2-22.4-12-39.2-32.8-47.2-56.8-7.2-24.8-4.8-50.4 7.2-73.6 16.8-31.2 49.6-51.2 85.6-51.2 16 0 31.2 4 45.6 11.2 17.6 9.6 32 24 40.8 41.6 14.4 28 13.6 61.6-.8 88.8zm205.6-32c-20.8-23.2-56-41.6-100.8-52.8-11.2-41.6-29.6-75.2-52.8-93.6 75.2 14.4 136 72 153.6 146.4zm4.8 39.2h-93.6c-.8-27.2-3.2-53.6-8.8-76.8 57.6 15.2 97.6 44 102.4 76.8zm-195.2-188c31.2 4.8 59.2 40.8 74.4 93.6-23.2-4.8-48-7.2-74.4-7.2v-86.4zm0 180c11.2-25.6 12-54.4 3.2-80.8 26.4 0 52 3.2 75.2 8 5.6 24.8 9.6 52 9.6 80.8h-88v-8zm0 21.6h88.8c-.8 28.8-4 56-9.6 80.8-24.8 5.6-51.2 8-79.2 8v-88.8zm0 188.8v-86.4c26.4 0 51.2-2.4 74.4-6.4-16 52-43.2 88.8-74.4 92.8zm36.8-2.4c22.4-18.4 41.6-52 52.8-93.6 44.8-10.4 80.8-29.6 101.6-52.8-18.4 73.6-79.2 132-154.4 146.4zm56-109.6c5.6-23.2 8.8-48.8 8.8-76.8h93.6c-4.8 33.6-44.8 62.4-102.4 76.8z"/><path d="M200.872 111.236c-20-10.4-42.4-12.8-64-6.4s-39.2 20.8-49.6 40.8c-3.2 3.2-1.6 8 1.6 9.6.8.8 2.4.8 3.2.8 2.4 0 4.8-1.6 6.4-4 8.8-16.8 24-28.8 41.6-34.4 18.4-5.6 36.8-3.2 53.6 5.6 3.2 1.6 7.2.8 9.6-2.4 1.6-3.2.8-7.2-2.4-9.6z"/></symbol><symbol viewBox="0 0 512.001 512.001" id="globe-1" xmlns="http://www.w3.org/2000/svg"><path d="M430.387 77.731a257.237 257.237 0 0 0-10.468-9.878l-.165-.147C373.535 26.454 314.563 3.889 252.114 3.888h-.037c-40.357.006-80.49 9.779-116.062 28.265-18.297 9.509-35.417 21.345-50.901 35.047a7.78 7.78 0 0 0-1.28 1.132C70.689 80.121 58.747 93.262 48.34 107.52a7.707 7.707 0 0 0 1.681 10.77 7.71 7.71 0 0 0 10.77-1.681 235.628 235.628 0 0 1 28.966-32.764 251.72 251.72 0 0 0 56.606 36.021c-12.027 38.078-18.772 82.196-19.448 128.424H15.546c1.092-34.807 9.582-68.122 25.298-99.133a7.708 7.708 0 0 0-3.393-10.36c-3.792-1.924-8.435-.406-10.36 3.393C9.114 177.666 0 215.956 0 256c0 67.341 26.225 130.653 73.842 178.271 47.618 47.618 110.93 73.842 178.271 73.842 53.975 0 105.447-16.81 148.854-48.615a7.707 7.707 0 0 0 1.662-10.773c-2.515-3.436-7.339-4.177-10.773-1.663-26.958 19.752-57.235 33.337-89.313 40.273 6.364-5.538 12.496-12.146 18.333-19.802a7.707 7.707 0 0 0-1.456-10.803 7.705 7.705 0 0 0-10.803 1.456c-14.955 19.614-31.666 31.189-48.745 33.89l.686-65.404a7.708 7.708 0 0 0-7.628-7.788h-.082a7.71 7.71 0 0 0-7.706 7.628l-.688 65.592c-25.47-3.906-49.557-27.212-68.513-66.624-3.966-8.246-7.602-16.998-10.904-26.18a235.121 235.121 0 0 1 48.704-13.436 7.708 7.708 0 0 0-2.479-15.215 250.657 250.657 0 0 0-51.095 13.999c-11.002-35.914-17.176-77.401-17.83-120.938h81.905a7.707 7.707 0 0 0 7.708-7.708 7.707 7.707 0 0 0-7.708-7.708h-81.905c.662-44.122 6.998-86.133 18.28-122.377a251.973 251.973 0 0 0 84.227 17.057l.298 89.57a7.708 7.708 0 0 0 7.707 7.683h.027a7.71 7.71 0 0 0 7.683-7.734l-.298-89.548c28.382-.913 56.158-6.574 82.259-16.596 7.024 23.119 11.974 48.64 14.482 75.369a7.704 7.704 0 0 0 8.395 6.954 7.708 7.708 0 0 0 6.954-8.395c-2.656-28.303-7.974-55.382-15.555-79.921a251.725 251.725 0 0 0 57.628-36.467c44.028 41.542 72.17 99.737 74.25 164.408H444.53a7.707 7.707 0 0 0-7.708 7.708 7.707 7.707 0 0 0 7.708 7.708h44.152c-1.382 42.949-14.294 84.459-37.566 120.502a7.709 7.709 0 1 0 12.952 8.362c26.273-40.694 40.161-87.92 40.161-136.574 0-67.342-26.225-130.654-73.842-178.272zm-268.343 354.43c11.402 23.706 24.783 42.239 39.465 55.071-37.804-8.265-72.256-25.585-100.96-49.575a236.539 236.539 0 0 1 50.324-32.208c3.392 9.349 7.115 18.28 11.171 26.712zm-16.117-41.416a252.01 252.01 0 0 0-57.002 36.552c-43.527-41.485-71.303-99.347-73.37-163.588h111.36c.668 45.667 7.259 89.275 19.012 127.036zm5.45-285.564a236.224 236.224 0 0 1-49.899-31.638c28.958-23.834 63.261-40.568 99.909-48.668-14.636 12.829-27.973 31.324-39.343 54.964-3.856 8.019-7.411 16.492-10.667 25.342zm14.174 6.109c3.165-8.666 6.626-16.948 10.388-24.768C194.89 47.119 218.97 23.814 244.433 19.9l.358 107.647a236.598 236.598 0 0 1-79.24-16.257zm94.656 16.229l-.358-107.545c20.507 3.472 40.841 20.595 57.985 49.109 7.545 12.549 14.198 26.899 19.836 42.602a236.535 236.535 0 0 1-77.463 15.834zm91.658-21.871c-5.922-16.353-12.903-31.343-20.819-44.508-9.069-15.085-19.113-27.396-29.779-36.688 37.958 8.049 72.588 25.211 101.47 49.098a236.202 236.202 0 0 1-50.872 32.098z"/><path d="M393.191 276.041h.001c-30.209-30.208-79.364-30.208-109.573.001-30.209 30.21-30.209 79.364 0 109.573 15.106 15.105 34.943 22.658 54.787 22.656 19.838-.002 39.682-7.554 54.785-22.656 14.635-14.633 22.694-34.091 22.694-54.788.001-20.695-8.059-40.151-22.694-54.786zm-10.902 98.673c-24.197 24.199-63.572 24.199-87.768 0-24.199-24.198-24.199-63.572 0-87.769 12.098-12.099 27.991-18.148 43.884-18.148s31.786 6.049 43.884 18.148h.001c11.723 11.722 18.178 27.307 18.178 43.884 0 16.578-6.455 32.163-18.179 43.885z"/><path d="M509.743 468.888l-77.914-77.915c11.49-17.77 17.656-38.482 17.656-60.145 0-29.67-11.554-57.565-32.534-78.544-43.311-43.309-113.778-43.309-157.089 0-13.666 13.667-23.563 30.693-28.617 49.241a7.71 7.71 0 0 0 14.875 4.053c4.35-15.96 12.872-30.619 24.645-42.392 37.297-37.299 97.988-37.299 135.285 0 18.069 18.067 28.02 42.09 28.02 67.642 0 25.553-9.951 49.575-28.02 67.643-37.297 37.299-97.988 37.299-135.285 0-16.06-16.06-25.902-37.353-27.713-59.957-.339-4.244-4.06-7.39-8.298-7.069a7.71 7.71 0 0 0-7.069 8.299c2.103 26.252 13.531 50.981 32.179 69.629 21.655 21.654 50.1 32.482 78.545 32.482 20.947 0 41.89-5.879 60.126-17.622l77.933 77.933a7.686 7.686 0 0 0 5.451 2.257 7.682 7.682 0 0 0 5.45-2.257l22.376-22.376a7.707 7.707 0 0 0-.002-10.902zm-27.827 16.926l-70.703-70.703 5.718-5.717.02-.02.021-.021 5.716-5.718 70.704 70.704-11.476 11.475z"/></symbol><symbol viewBox="0 0 219.15 219.15" id="history" xmlns="http://www.w3.org/2000/svg"><path d="M109.575 0C49.156 0 .001 49.155.001 109.574c0 60.42 49.154 109.576 109.573 109.576 60.42 0 109.574-49.156 109.574-109.576C219.149 49.155 169.995 0 109.575 0zm0 204.15c-52.148 0-94.573-42.427-94.573-94.576C15.001 57.426 57.427 15 109.575 15c52.148 0 94.574 42.426 94.574 94.574 0 52.15-42.426 94.576-94.574 94.576z"/><path d="M166.112 108.111h-52.051V51.249a7.5 7.5 0 0 0-15 0v64.362a7.5 7.5 0 0 0 7.5 7.5h59.551a7.5 7.5 0 0 0 0-15z"/></symbol><symbol viewBox="0 0 443.307 443.306" id="play-button" xmlns="http://www.w3.org/2000/svg"><path d="M415.934 212.799L36.788 2.097C32.411-.377 28.65-.661 25.51 1.242c-3.14 1.902-4.708 5.328-4.708 10.276V431.78c0 4.952 1.569 8.381 4.708 10.284 3.14 1.902 6.901 1.622 11.278-.855l379.146-210.703c4.381-2.478 6.571-5.434 6.571-8.856 0-3.426-2.191-6.376-6.571-8.851z"/></symbol><symbol viewBox="0 0 294.844 294.844" id="settings" xmlns="http://www.w3.org/2000/svg"><path d="M240.15 201.967a5.997 5.997 0 0 0-8.484 0 5.997 5.997 0 0 0 0 8.484l11.663 11.664a14.693 14.693 0 0 1 4.332 10.457c0 3.951-1.539 7.665-4.332 10.459l-.297.297a14.696 14.696 0 0 1-10.459 4.331c-3.95 0-7.664-1.538-10.458-4.332l-11.663-11.662a6 6 0 0 0-7.567-.751c-10.885 7.246-22.876 12.218-35.642 14.777a5.999 5.999 0 0 0-4.82 5.883v16.479c0 8.156-6.635 14.791-14.79 14.791h-.42c-8.155 0-14.79-6.635-14.79-14.791v-16.479a6 6 0 0 0-4.821-5.883c-12.766-2.56-24.757-7.531-35.642-14.777a6.001 6.001 0 0 0-7.568.751l-11.663 11.663a14.694 14.694 0 0 1-10.458 4.331 14.692 14.692 0 0 1-10.458-4.331l-.297-.297a14.697 14.697 0 0 1-4.332-10.459c0-3.95 1.539-7.664 4.332-10.458l11.663-11.663a6 6 0 0 0 .752-7.567c-7.247-10.885-12.219-22.877-14.779-35.642a6 6 0 0 0-5.883-4.82H26.791c-8.155 0-14.79-6.635-14.79-14.789v-.421c0-8.155 6.635-14.79 14.79-14.79H43.27a6 6 0 0 0 5.883-4.82c2.561-12.767 7.533-24.758 14.779-35.642a6 6 0 0 0-.752-7.568L51.516 72.73c-2.793-2.794-4.332-6.508-4.332-10.459s1.539-7.665 4.332-10.459l.297-.297a14.693 14.693 0 0 1 10.458-4.332c3.95 0 7.665 1.539 10.458 4.333l11.663 11.662a6 6 0 0 0 8.485-8.486L81.215 43.031c-5.06-5.061-11.788-7.848-18.943-7.848-7.156 0-13.884 2.787-18.943 7.848l-.297.297c-5.06 5.06-7.847 11.787-7.847 18.943s2.787 13.884 7.847 18.944l8.264 8.263a110.976 110.976 0 0 0-12.832 30.943H26.791c-14.772 0-26.79 12.018-26.79 26.79v.421c0 14.771 12.018 26.789 26.79 26.789h11.672a110.91 110.91 0 0 0 12.832 30.943l-8.263 8.264c-5.061 5.06-7.847 11.787-7.847 18.943s2.787 13.884 7.847 18.943l.297.297c5.06 5.061 11.787 7.847 18.943 7.847 7.156 0 13.883-2.786 18.943-7.846l8.264-8.264a110.932 110.932 0 0 0 30.944 12.831v11.672c0 14.772 12.018 26.791 26.79 26.791h.42c14.772 0 26.79-12.019 26.79-26.791v-11.672a110.913 110.913 0 0 0 30.943-12.831l8.264 8.263c5.06 5.061 11.787 7.847 18.943 7.847s13.884-2.786 18.943-7.847l.297-.297c5.061-5.06 7.848-11.787 7.848-18.943s-2.787-13.884-7.848-18.942l-11.663-11.662zm27.903-81.545H256.38a110.931 110.931 0 0 0-12.831-30.943l8.264-8.264c10.446-10.445 10.446-27.441 0-37.887l-.297-.297c-5.06-5.061-11.787-7.848-18.943-7.848s-13.884 2.787-18.942 7.847l-8.265 8.265a110.926 110.926 0 0 0-30.943-12.831V26.791C174.422 12.019 162.405 0 147.632 0h-.42c-14.772 0-26.79 12.019-26.79 26.791V43.27a6 6 0 0 0 12 0V26.791c0-8.156 6.635-14.791 14.79-14.791h.42c8.155 0 14.79 6.635 14.79 14.791V43.27a6.002 6.002 0 0 0 4.82 5.883c12.766 2.561 24.757 7.532 35.642 14.778a6.001 6.001 0 0 0 7.567-.752l11.664-11.663a14.693 14.693 0 0 1 10.457-4.332c3.951 0 7.665 1.539 10.459 4.332l.297.297c2.793 2.794 4.332 6.508 4.332 10.459s-1.539 7.665-4.332 10.458l-11.663 11.662a6 6 0 0 0-.752 7.568c7.245 10.883 12.218 22.874 14.778 35.642a6 6 0 0 0 5.883 4.82h16.479c8.155 0 14.79 6.635 14.79 14.79v.421c0 8.154-6.635 14.789-14.79 14.789h-16.479a6 6 0 0 0 0 12h16.479c14.772 0 26.79-12.018 26.79-26.789v-.421c0-14.773-12.018-26.79-26.79-26.79z"/><path d="M147.422 170.024c-5.241 0-10.158-1.74-14.22-5.033a6 6 0 0 0-7.556 9.322 34.68 34.68 0 0 0 21.776 7.711c19.079 0 34.602-15.522 34.602-34.603 0-19.079-15.522-34.602-34.602-34.602s-34.602 15.522-34.602 34.602a6 6 0 0 0 12 0c0-12.463 10.139-22.602 22.602-22.602s22.602 10.139 22.602 22.602-10.139 22.603-22.602 22.603z"/></symbol><symbol viewBox="0 0 60 60" id="smartphone" xmlns="http://www.w3.org/2000/svg"><path d="M42.595 0h-25.19A4.411 4.411 0 0 0 13 4.405v51.189A4.411 4.411 0 0 0 17.405 60h25.189A4.411 4.411 0 0 0 47 55.595V4.405A4.411 4.411 0 0 0 42.595 0zM15 8h30v38H15V8zm2.405-6h25.189A2.408 2.408 0 0 1 45 4.405V6H15V4.405A2.408 2.408 0 0 1 17.405 2zm25.19 56h-25.19A2.408 2.408 0 0 1 15 55.595V48h30v7.595A2.408 2.408 0 0 1 42.595 58z"/><path d="M30 49c-2.206 0-4 1.794-4 4s1.794 4 4 4 4-1.794 4-4-1.794-4-4-4zm0 6c-1.103 0-2-.897-2-2s.897-2 2-2 2 .897 2 2-.897 2-2 2zM26 5h4a1 1 0 1 0 0-2h-4a1 1 0 1 0 0 2zm7 0h1a1 1 0 1 0 0-2h-1a1 1 0 1 0 0 2zm23.612-.431a.999.999 0 1 0-1.414 1.414c3.736 3.736 3.736 9.815 0 13.552a.999.999 0 1 0 1.414 1.414c4.516-4.515 4.516-11.864 0-16.38z"/><path d="M52.401 6.845a.999.999 0 1 0-1.414 1.414c1.237 1.237 1.918 2.885 1.918 4.639s-.681 3.401-1.918 4.638a.999.999 0 1 0 1.414 1.414c1.615-1.614 2.504-3.764 2.504-6.052s-.888-4.439-2.504-6.053zM4.802 5.983a.999.999 0 1 0-1.414-1.414c-4.516 4.516-4.516 11.864 0 16.38a.997.997 0 0 0 1.414 0 .999.999 0 0 0 0-1.414c-3.737-3.736-3.737-9.815 0-13.552z"/><path d="M9.013 6.569a.999.999 0 0 0-1.414 0c-1.615 1.614-2.504 3.764-2.504 6.052s.889 4.438 2.504 6.053a.997.997 0 0 0 1.414 0 .999.999 0 0 0 0-1.414c-1.237-1.237-1.918-2.885-1.918-4.639s.68-3.401 1.918-4.638a1 1 0 0 0 0-1.414z"/></symbol><symbol viewBox="0 0 38 38" id="telephone" xmlns="http://www.w3.org/2000/svg"><path d="M31.124 8.111l-1.172-.001c0-3.826-3.113-6.938-6.939-6.938V0c4.472 0 8.111 3.639 8.111 8.111zm-8.111-6.086v1.172a4.918 4.918 0 0 1 4.914 4.914h1.172a6.094 6.094 0 0 0-6.086-6.086zm2.888 5.432v28.331A2.218 2.218 0 0 1 23.69 38H9.087a2.22 2.22 0 0 1-2.211-2.212V7.457c0-1.217.996-2.211 2.211-2.211H23.69c1.217 0 2.211.994 2.211 2.211zm-12.115-.349c0 .148.119.267.269.267h4.672a.268.268 0 1 0 0-.536h-4.672a.27.27 0 0 0-.269.269zm3.709 28.68a1.104 1.104 0 1 0-1.104 1.106 1.106 1.106 0 0 0 1.104-1.106zm6.869-27.035H8.415v25.152h15.949V8.753zM12.81 18.808a3.508 3.508 0 0 1 3.506-3.505 3.508 3.508 0 0 1 3.504 3.505 3.507 3.507 0 0 1-3.504 3.504 3.509 3.509 0 0 1-3.506-3.504zm.638 0a2.87 2.87 0 0 0 2.867 2.866 2.871 2.871 0 0 0 2.854-2.613c-.612-.562-1.213-1.695-1.327-2.497-.147.442-3.392 1.093-4.181 1.164a2.834 2.834 0 0 0-.213 1.08zm5.506 2.903a3.915 3.915 0 0 1-2.621 1.027v-.002l-.021.002-.021-.002v.002a3.916 3.916 0 0 1-2.621-1.027 2.735 2.735 0 0 0-2.232 2.688v3.039h9.749v-3.039a2.737 2.737 0 0 0-2.233-2.688z"/></symbol><symbol viewBox="0 0 512 512" id="wall-clock" xmlns="http://www.w3.org/2000/svg"><path d="M437.02 74.98C388.667 26.629 324.38 0 256 0S123.333 26.629 74.98 74.98C26.629 123.333 0 187.62 0 256s26.629 132.667 74.98 181.02C123.333 485.371 187.62 512 256 512s132.667-26.629 181.02-74.98C485.371 388.667 512 324.38 512 256s-26.629-132.667-74.98-181.02zM256 472c-119.103 0-216-96.897-216-216S136.897 40 256 40s216 96.897 216 216-96.897 216-216 216z"/><path d="M276 236V76h-40v200h152v-40z"/></symbol><symbol viewBox="0 0 512 512" id="wallet" xmlns="http://www.w3.org/2000/svg"><path d="M400.001 103.994H416a8 8 0 0 0 0-16h-15.999a8 8 0 0 0 0 16zm-360.001 0h328a8 8 0 0 0 0-16H40a8 8 0 0 0 0 16z"/><path d="M496 233.376V96c0-22.056-17.944-40-40-40H40C17.944 56 0 73.944 0 96v320c0 22.056 17.944 40 40 40h416c22.056 0 40-17.944 40-40v-73.362c9.311-3.303 16-12.195 16-22.624V256c0-10.429-6.689-19.321-16-22.624zM40 72h416c13.233 0 24 10.767 24 24v.016a39.788 39.788 0 0 0-24-8.022h-7.996a8 8 0 0 0 0 16H456c13.234 0 24 10.767 24 24v.028A39.788 39.788 0 0 0 456 120H40c-13.234 0-24-10.767-24-24s10.767-24 24-24zm416 368H40c-13.234 0-24-10.767-24-24V127.978A39.788 39.788 0 0 0 40 136h416c13.233 0 24 10.767 24 24v72h-96c-17.645 0-32 14.355-32 32v48.015c0 17.645 14.355 32 32 32h96V416c0 13.233-10.766 24-24 24zm40-119.985c0 4.411-3.589 8-8 8H384c-8.822 0-16-7.178-16-16V264c0-8.822 7.178-16 16-16h103.884c.039.001.077.006.116.006.02 0 .038-.003.058-.003 4.384.032 7.942 3.605 7.942 7.997v64.015z"/><path d="M432 280a8 8 0 0 0-8 8c0 4.411-3.589 8-8 8s-8-3.589-8-8 3.589-8 8-8a8 8 0 0 0 0-16c-13.234 0-24 10.767-24 24s10.766 24 24 24 24-10.767 24-24a8 8 0 0 0-8-8z"/></symbol></svg>