<?xml version="1.0" encoding="iso-8859-1"?>
<!-- Generator: Adobe Illustrator 19.0.0, SVG Export Plug-In . SVG Version: 6.00 Build 0)  -->
<svg version="1.1" id="Capa_1" xmlns="http://www.w3.org/2000/svg" xmlns:xlink="http://www.w3.org/1999/xlink" x="0px" y="0px"
	 viewBox="0 0 470.472 470.472" style="enable-background:new 0 0 470.472 470.472;" xml:space="preserve">
<g>
	<g>
		<path d="M260.872,23.236c-1.6,0-2.4,0-4,0c-0.8,0-2.4,0-3.2,0c-2.4,0-4.8,0-7.2,0.8c-41.6,2.4-80.8,16.8-113.6,43.2
			c-29.6,7.2-55.2,27.2-70.4,55.2c-13.6,24.8-16.8,53.6-8.8,80.8c-1.6,8.8-2.4,19.2-2.4,29.6c0,22.4,4,44.8,11.2,66.4l-60.8,112.8
			c-1.6,3.2-2.4,7.2-0.8,11.2c1.6,4,4,8,8,9.6l22.4,12c2.4,1.6,5.6,2.4,8,2.4c5.6,0,11.2-3.2,13.6-8l42.4-78.4
			c37.6,48,93.6,77.6,154.4,80.8c1.6,0,3.2,0,4,0s1.6,0,3.2,0c1.6,0,3.2,0,4,0c116,0,209.6-94.4,209.6-209.6
			S376.072,23.236,260.872,23.236z M247.272,37.636v68.8c-9.6-12-21.6-22.4-35.2-29.6c-4-1.6-7.2-4-11.2-5.6
			C214.472,52.036,230.472,40.036,247.272,37.636z M204.872,45.636c-6.4,5.6-12,12.8-18.4,21.6c-8-2.4-16.8-3.2-24.8-3.2
			C175.272,56.036,189.672,49.636,204.872,45.636z M40.872,432.836c0,0.8-1.6,0.8-3.2,0l-22.4-12c-0.8-0.8-1.6-0.8-1.6-1.6v-0.8
			l81.6-152.8c0-0.8,0.8-0.8,1.6-0.8c0.8,0,0.8,0,1.6,0.8l9.6,4.8l12.8,7.2c1.6,0.8,1.6,2.4,1.6,2.4L40.872,432.836z
			 M65.672,239.236h6.4c4.8,5.6,9.6,11.2,15.2,16c-2.4,1.6-3.2,3.2-4,4l-4,8C72.072,258.436,67.272,248.836,65.672,239.236z
			 M72.072,280.036l-0.8,1.6c-0.8-0.8-0.8-1.6-0.8-3.2C71.272,279.236,71.272,280.036,72.072,280.036z M102.472,348.036l18.4-33.6
			c11.2,5.6,23.2,9.6,36,13.6c10.4,40.8,28,73.6,48.8,93.6C164.072,408.036,128.072,383.236,102.472,348.036z M127.272,300.836
			l8-14.4c0-1.6,0.8-3.2,0.8-5.6c4,0.8,8,1.6,12,1.6c1.6,9.6,2.4,20,4.8,28.8C144.072,308.036,135.272,304.836,127.272,300.836z
			 M247.272,428.836c-32-5.6-60-42.4-76-97.6c24,5.6,48.8,9.6,76,10.4V428.836z M247.272,327.236c-28-0.8-55.2-4.8-79.2-11.2
			c-2.4-9.6-4.8-20.8-6.4-32c33.6-0.8,64.8-16.8,85.6-43.2V327.236z M245.672,218.436c-16.8,31.2-49.6,51.2-85.6,51.2
			c-16,0-31.2-4-45.6-11.2c-22.4-12-39.2-32.8-47.2-56.8c-7.2-24.8-4.8-50.4,7.2-73.6c16.8-31.2,49.6-51.2,85.6-51.2
			c16,0,31.2,4,45.6,11.2c17.6,9.6,32,24,40.8,41.6C260.872,157.636,260.072,191.236,245.672,218.436z M451.272,186.436
			c-20.8-23.2-56-41.6-100.8-52.8c-11.2-41.6-29.6-75.2-52.8-93.6C372.872,54.436,433.672,112.036,451.272,186.436z
			 M456.072,225.636h-93.6c-0.8-27.2-3.2-53.6-8.8-76.8C411.272,164.036,451.272,192.836,456.072,225.636z M260.872,37.636
			c31.2,4.8,59.2,40.8,74.4,93.6c-23.2-4.8-48-7.2-74.4-7.2V37.636z M260.872,217.636c11.2-25.6,12-54.4,3.2-80.8
			c26.4,0,52,3.2,75.2,8c5.6,24.8,9.6,52,9.6,80.8h-88V217.636z M260.872,239.236h88.8c-0.8,28.8-4,56-9.6,80.8
			c-24.8,5.6-51.2,8-79.2,8V239.236z M260.872,428.036v-86.4c26.4,0,51.2-2.4,74.4-6.4
			C319.272,387.236,292.072,424.036,260.872,428.036z M297.672,425.636c22.4-18.4,41.6-52,52.8-93.6c44.8-10.4,80.8-29.6,101.6-52.8
			C433.672,352.836,372.872,411.236,297.672,425.636z M353.672,316.036c5.6-23.2,8.8-48.8,8.8-76.8h93.6
			C451.272,272.836,411.272,301.636,353.672,316.036z"/>
	</g>
</g>
<g>
	<g>
		<path d="M200.872,111.236c-20-10.4-42.4-12.8-64-6.4c-21.6,6.4-39.2,20.8-49.6,40.8c-3.2,3.2-1.6,8,1.6,9.6
			c0.8,0.8,2.4,0.8,3.2,0.8c2.4,0,4.8-1.6,6.4-4c8.8-16.8,24-28.8,41.6-34.4c18.4-5.6,36.8-3.2,53.6,5.6c3.2,1.6,7.2,0.8,9.6-2.4
			C204.872,117.636,204.072,113.636,200.872,111.236z"/>
	</g>
</g>
<g>
</g>
<g>
</g>
<g>
</g>
<g>
</g>
<g>
</g>
<g>
</g>
<g>
</g>
<g>
</g>
<g>
</g>
<g>
</g>
<g>
</g>
<g>
</g>
<g>
</g>
<g>
</g>
<g>
</g>
</svg>
